<svg height="480pt" viewBox="-48 0 480 480.00026" width="480pt" xmlns="http://www.w3.org/2000/svg"><path d="m40 480h304c22.082031-.027344 39.972656-17.917969 40-40v-136c-.019531-17.664062-14.335938-31.980469-32-32h-11.691406l27-60.75c.457031-1.023438.691406-2.128906.691406-3.25v-136c-.027344-22.082031-17.917969-39.972656-40-40h-8.808594c-2.976562-14.878906-14.152344-26.769531-28.816406-30.664062-14.660156-3.898438-30.265625.878906-40.234375 12.316406-5.964844-8.542969-15.722656-13.636719-26.140625-13.652344h-64c-10.417969.015625-20.175781 5.109375-26.140625 13.652344-9.96875-11.4375-25.574219-16.214844-40.234375-12.316406-14.664062 3.894531-25.839844 15.785156-28.816406 30.664062h-8.808594c-22.082031.027344-39.972656 17.917969-40 40v136c0 1.121094.234375 2.226562.691406 3.25l27 60.75h-11.691406c-17.664062.019531-31.9804688 14.335938-32 32v136c.0273438 22.082031 17.917969 39.972656 40 40zm216-440c0-13.253906 10.746094-24 24-24s24 10.746094 24 24v80c-.003906 4.417969-3.582031 7.996094-8 8h-40zm4.945312 104h14.109376l-59.796876 119.59375c-3.453124-2.449219-7.277343-4.332031-11.324218-5.570312zm-44.945312 152c0 13.253906-10.746094 24-24 24s-24-10.746094-24-24 10.746094-24 24-24c13.25.015625 23.984375 10.75 24 24zm-72-256v-8c.007812-8.832031 7.167969-15.992188 16-16h64c8.832031.007812 15.992188 7.167969 16 16v96h-96zm99.054688 104-51.054688 102.109375-51.054688-102.109375zm-62.988282 114.023438c-4.046875 1.242187-7.871094 3.121093-11.324218 5.570312l-59.796876-119.59375h14.109376zm-100.066406-218.023438c0-13.253906 10.746094-24 24-24s24 10.746094 24 24v88h-40c-4.414062-.003906-7.992188-3.582031-8-8zm-48 166.300781v-134.300781c.015625-13.25 10.75-23.984375 24-24h8v72c.015625 13.25 10.75 23.984375 24 24h3.054688l66.246093 132.488281c-3.429687 5.933594-5.257812 12.660157-5.300781 19.511719 0 22.089844 17.910156 40 40 40s40-17.910156 40-40c-.042969-6.851562-1.871094-13.578125-5.296875-19.511719l66.242187-132.488281h3.054688c13.25-.015625 23.984375-10.75 24-24v-72h8c13.25.015625 23.984375 10.75 24 24v134.300781l-29.199219 65.699219h-10.800781c-10.136719.03125-19.15625 6.4375-22.527344 16h-17.472656c-17.664062.019531-31.980469 14.335938-32 32v16h-96v-16c-.019531-17.664062-14.335938-31.980469-32-32h-17.472656c-3.371094-9.5625-12.390625-15.96875-22.527344-16h-10.800781zm74.34375 167.355469c3.125 3.125 8.191406 3.125 11.3125 0l21.65625-21.65625h105.375l21.65625 21.65625c3.128906 3.089844 8.167969 3.074219 11.277344-.035156s3.125-8.148438.035156-11.277344l-21.65625-21.65625v-20.6875c.007812-8.832031 7.167969-15.992188 16-16h16v80h-192v-80h16c8.832031.007812 15.992188 7.167969 16 16v20.6875l-21.65625 21.65625c-3.125 3.125-3.125 8.1875 0 11.3125zm-90.34375-69.65625c.007812-8.832031 7.167969-15.992188 16-16h40c4.417969.007812 7.996094 3.585938 8 8v92.6875l-45.65625 45.65625c-2.042969 2.015625-2.847656 4.972656-2.109375 7.746094.734375 2.773437 2.902344 4.941406 5.675781 5.675781 2.773438.738281 5.730469-.066406 7.746094-2.109375l45.65625-45.65625h201.375l45.65625 45.65625c3.128906 3.089844 8.167969 3.074219 11.277344-.035156s3.125-8.148438.035156-11.277344l-45.65625-45.65625v-92.6875c.007812-4.414062 3.585938-7.992188 8-8h40c8.832031.007812 15.992188 7.167969 16 16v136c-.015625 13.25-10.75 23.984375-24 24h-304c-13.25-.015625-23.984375-10.75-24-24zm0 0"/><path d="m88 448h96c4.417969 0 8-3.582031 8-8s-3.582031-8-8-8h-96c-4.417969 0-8 3.582031-8 8s3.582031 8 8 8zm0 0"/><path d="m216 448h16c4.417969 0 8-3.582031 8-8s-3.582031-8-8-8h-16c-4.417969 0-8 3.582031-8 8s3.582031 8 8 8zm0 0"/><path d="m72 256c4.417969 0 8-3.582031 8-8v-80c0-4.417969-3.582031-8-8-8s-8 3.582031-8 8v80c0 4.417969 3.582031 8 8 8zm0 0"/></svg>