<?xml version="1.0" encoding="iso-8859-1"?>
<!-- Generator: Adobe Illustrator 19.0.0, SVG Export Plug-In . SVG Version: 6.00 Build 0)  -->
<svg xmlns="http://www.w3.org/2000/svg" xmlns:xlink="http://www.w3.org/1999/xlink" version="1.1" id="Layer_1" x="0px" y="0px" viewBox="0 0 505 505" style="enable-background:new 0 0 505 505;" xml:space="preserve" width="512" height="512">
<g>
	<path d="M252.5,505c-67.445,0-130.854-26.265-178.544-73.956S0,319.945,0,252.5S26.265,121.646,73.956,73.956S185.055,0,252.5,0   s130.854,26.265,178.544,73.956S505,185.055,505,252.5s-26.265,130.854-73.956,178.544S319.945,505,252.5,505z M252.5,15   c-63.438,0-123.08,24.704-167.938,69.562S15,189.062,15,252.5s24.704,123.08,69.562,167.938S189.062,490,252.5,490   s123.08-24.704,167.938-69.562S490,315.938,490,252.5s-24.704-123.08-69.562-167.938C375.58,39.704,315.938,15,252.5,15z"/>
	<path d="M252.5,450.378c-34.891,0-69.194-9.208-99.202-26.626c-29.111-16.898-53.613-41.113-70.859-70.027   c-2.122-3.557-0.958-8.161,2.6-10.283c3.557-2.121,8.161-0.958,10.283,2.6c15.943,26.73,38.595,49.116,65.507,64.738   c27.724,16.093,59.423,24.599,91.672,24.599c100.84,0,182.879-82.039,182.879-182.878S353.34,69.622,252.5,69.622   c-100.839,0-182.878,82.039-182.878,182.878c0,23.183,4.278,45.771,12.714,67.136c1.521,3.853-0.369,8.209-4.222,9.73   c-3.851,1.519-8.208-0.369-9.73-4.222c-9.132-23.127-13.762-47.568-13.762-72.645c0-109.111,88.768-197.878,197.878-197.878   c109.111,0,197.879,88.768,197.879,197.878C450.379,361.61,361.611,450.378,252.5,450.378z"/>
	<path d="M272.958,418.08c-7.548,0-14.846-3.15-20.02-8.642L144.169,293.987c-7.532-7.995-9.585-19.676-5.23-29.759   c4.353-10.083,14.263-16.599,25.247-16.599h77.19c6.875,0,13.466-2.135,18.96-5.93h-96.151c-15.164,0-27.5-12.336-27.5-27.5   s12.336-27.5,27.5-27.5h96.151c-5.495-3.795-12.085-5.931-18.961-5.931h-77.19c-15.164,0-27.5-12.336-27.5-27.5   c0-15.163,12.336-27.5,27.5-27.5h107.171c4.142,0,7.5,3.358,7.5,7.5s-3.358,7.5-7.5,7.5H164.185c-6.893,0-12.5,5.607-12.5,12.5   c0,6.893,5.607,12.5,12.5,12.5h77.19c17.458,0,33.639,9.485,42.228,24.753c1.307,2.322,1.283,5.164-0.063,7.463   c-1.345,2.3-3.81,3.714-6.474,3.714H164.185c-6.893,0-12.5,5.607-12.5,12.5s5.607,12.5,12.5,12.5h112.882   c2.665,0,5.129,1.414,6.474,3.714s1.369,5.141,0.063,7.463c-8.59,15.268-24.771,24.753-42.228,24.753h-77.19   c-4.992,0-9.497,2.961-11.476,7.545c-1.979,4.583-1.046,9.893,2.377,13.527l108.769,115.451c2.386,2.533,5.619,3.928,9.102,3.928   c3.196,0,6.239-1.208,8.568-3.402c5.016-4.726,5.252-12.652,0.526-17.67l-77.005-81.735c-2.052-2.178-2.613-5.368-1.427-8.116   c1.187-2.748,3.893-4.527,6.886-4.527h30.87c33.59,0,62.852-22.734,71.158-55.285c0.848-3.321,3.839-5.646,7.267-5.646h33.338   c6.893,0,12.5-5.607,12.5-12.5s-5.607-12.5-12.5-12.5H319.8c-3.428,0-6.419-2.324-7.267-5.646   c-1.69-6.623-4.33-13.009-7.846-18.979c-1.365-2.319-1.384-5.191-0.048-7.528c1.335-2.336,3.82-3.778,6.511-3.778h41.989   c6.893,0,12.5-5.607,12.5-12.5c0-6.892-5.607-12.5-12.5-12.5h-51.781c-4.142,0-7.5-3.358-7.5-7.5s3.358-7.5,7.5-7.5h51.781   c15.164,0,27.5,12.336,27.5,27.5c0,15.164-12.336,27.5-27.5,27.5h-29.907c0.802,1.952,1.532,3.93,2.19,5.931h27.717   c15.164,0,27.5,12.336,27.5,27.5s-12.336,27.5-27.5,27.5h-27.711c-11.811,36.155-45.573,60.93-84.052,60.93h-13.5l65.094,69.093   c10.398,11.038,9.878,28.476-1.158,38.874C286.688,415.422,279.992,418.08,272.958,418.08z"/>
</g>















</svg>
